<?xml version="1.0" encoding="utf-8"?>
<!-- Generator: Adobe Illustrator 18.1.0, SVG Export Plug-In . SVG Version: 6.00 Build 0)  -->
<svg version="1.1" id="Layer_1" xmlns="http://www.w3.org/2000/svg" xmlns:xlink="http://www.w3.org/1999/xlink" x="0px" y="0px"
	 viewBox="0 0 612 792" enable-background="new 0 0 612 792" xml:space="preserve">
<g>
	
		<ellipse transform="matrix(0.8054 -0.5928 0.5928 0.8054 -175.1822 258.4648)" fill="none" stroke="#000000" stroke-width="28" stroke-miterlimit="10" cx="306" cy="396" rx="236.3" ry="238.3"/>
	<path fill="#EC008C" d="M132.5,393.2c-10-13.6-10.7-20.3-6.6-36c3.9-15.6,6.2-22.2,20.4-32.7l16.1-11.9
		c14.2-10.5,21.2-10.7,37.3-9.8c16.3,0.8,22.4,3.4,32.4,17l28.2,38.4c9.8,13.4,10.2,20.9,6.1,37.6c-4,16.7-7,21.5-20,31l-16.1,11.9
		c-12.9,9.5-18.4,10.9-35.6,9.8c-17.2-1.1-24.3-3.7-34.1-17L132.5,393.2z M181,416.6c3.1,4.2,6.6,5.9,16.3,6.6
		c7.3,0.5,11.7-0.1,18-4.8l16.1-11.9c6.4-4.7,8.3-8.7,9.9-15.8c2.2-9.5,1.6-13.3-1.5-17.5l-28.2-38.4c-3.1-4.2-6.6-5.9-16.3-6.6
		c-7.3-0.5-11.7,0.1-18,4.8l-16.1,11.9c-6.4,4.7-8.3,8.7-9.9,15.8c-2.2,9.5-1.6,13.3,1.5,17.5L181,416.6z"/>
	<path fill="#000000" d="M259,276.3l5.6,7.6c5,6.8,4.8,12.8-2.8,18.4c-7.6,5.6-13.4,4-18.4-2.8l-21.2-28.8l104.7-77.1l21.2,28.8
		c5,6.8,4.8,12.8-2.8,18.4c-7.6,5.6-13.4,4-18.4-2.8l-5.6-7.6l-20.6,15.1l58.4,79.2c5,6.8,4.8,12.8-2.8,18.4
		c-7.6,5.6-13.4,4-18.4-2.8l-58.4-79.2L259,276.3z"/>
	<path fill="#FFF200" d="M297.2,539.9c7.9,10.7,12,17.1,25.1,7.5l9.7-7.1c7.7-5.7,10.9-8.9,7.2-18.1c-2.2-5.4-0.9-11.2,3.8-14.7
		c5.4-3.9,12.8-3,16.7,2.4c3.9,5.4,5.5,14.6,5.1,20.7c-0.8,13.4-8.9,21.5-19,29l-9.7,7.1c-9.5,7-19.4,11-31.6,8.6
		c-13.3-2.7-18.9-11.1-26.5-21.5l-28-38.7l-6.1,4.5c-5.6,4.1-14,8.4-20.1,0.1c-6-8.1-0.3-14.5,6.1-19.1l6.1-4.5l-9.2-13.2
		c-4.8-6.5-8.2-14.1-0.1-20.1c8.1-6,14.3-0.5,19.1,6.1l9.2,13.2l31.9-23.5c6.3-4.7,14.1-8.2,20.1-0.1c6.1,8.3-0.5,15.1-6.1,19.1
		l-31.9,23.5L297.2,539.9z"/>
	<path fill="#00AEEF" d="M347.3,440.9c-10-13.6-10.7-20.3-6.6-36c3.9-15.6,6.2-22.2,20.4-32.7l16.1-11.9
		c14.2-10.5,21.2-10.7,37.3-9.8c16.3,0.8,22.4,3.4,32.4,17l28.2,38.4c9.8,13.4,10.2,20.9,6.1,37.6c-4,16.7-7,21.5-20,31l-16.1,11.9
		c-12.9,9.5-18.4,10.9-35.6,9.8c-17.1-1.1-24.3-3.7-34.1-17L347.3,440.9z M395.9,464.3c3.1,4.2,6.6,5.9,16.3,6.6
		c7.3,0.5,11.7-0.1,18-4.8l16.1-11.9c6.4-4.7,8.3-8.7,9.9-15.8c2.2-9.5,1.6-13.3-1.5-17.5l-28.2-38.4c-3.1-4.2-6.6-5.9-16.3-6.6
		c-7.3-0.5-11.7,0.1-18,4.8l-16.1,11.9c-6.4,4.7-8.3,8.7-9.9,15.8c-2.2,9.5-1.6,13.3,1.5,17.5L395.9,464.3z"/>
</g>
</svg>
